{
  "accessors": [
    {
      "bufferView": 2,
      "componentType": 5126,
      "count": 130,
      "max": [
        2.0438735485076904,
        0.9105061292648315,
        0.02932584285736084
      ],
      "min": [
        -0.0761176347732544,
        -0.8912806510925293,
        -0.12398231029510498
      ],
      "type": "VEC3"
    },
    {
      "bufferView": 2,
      "byteOffset": 1560,
      "componentType": 5126,
      "count": 130,
      "max": [
        1.0,
        1.0,
        1.0
      ],
      "min": [
        -1.0,
        -1.0,
        -1.0
      ],
      "type": "VEC3"
    },
    {
      "bufferView": 1,
      "componentType": 5126,
      "count": 130,
      "max": [
        0.99609375,
        0.974609375
      ],
      "min": [
        0.25048828125,
        0.0010499954223632813
      ],
      "type": "VEC2"
    },
    {
      "bufferView": 0,
      "componentType": 5125,
      "count": 336,
      "type": "SCALAR"
    },
    {
      "bufferView": 2,
      "byteOffset": 3120,
      "componentType": 5126,
      "count": 241,
      "max": [
        0.8458051085472107,
        0.07407092303037643,
        7.690882597444215e-08
      ],
      "min": [
        -0.8458050489425659,
        -1.759468913078308,
        -0.35526153445243835
      ],
      "type": "VEC3"
    },
    {
      "bufferView": 2,
      "byteOffset": 6012,
      "componentType": 5126,
      "count": 241,
      "max": [
        1.0,
        1.0,
        1.0
      ],
      "min": [
        -1.0,
        -1.0,
        -1.0
      ],
      "type": "VEC3"
    },
    {
      "bufferView": 1,
      "byteOffset": 1040,
      "componentType": 5126,
      "count": 241,
      "max": [
        0.98974609375,
        0.98388671875
      ],
      "min": [
        0.003444671630859375,
        0.576171875
      ],
      "type": "VEC2"
    },
    {
      "bufferView": 0,
      "byteOffset": 1344,
      "componentType": 5125,
      "count": 708,
      "type": "SCALAR"
    },
    {
      "bufferView": 2,
      "byteOffset": 8904,
      "componentType": 5126,
      "count": 1130,
      "max": [
        0.9952846169471741,
        0.9558740854263306,
        2.2059651882955222e-07
      ],
      "min": [
        -1.0,
        -1.4397268295288086,
        -1.4274630546569824
      ],
      "type": "VEC3"
    },
    {
      "bufferView": 2,
      "byteOffset": 22464,
      "componentType": 5126,
      "count": 1130,
      "max": [
        1.0,
        1.0,
        1.0
      ],
      "min": [
        -1.0,
        -1.0,
        -1.0
      ],
      "type": "VEC3"
    },
    {
      "bufferView": 1,
      "byteOffset": 2968,
      "componentType": 5126,
      "count": 1130,
      "max": [
        0.9973652362823486,
        0.9991633892059326
      ],
      "min": [
        0.0019322964362800121,
        0.001043667201884091
      ],
      "type": "VEC2"
    },
    {
      "bufferView": 0,
      "byteOffset": 4176,
      "componentType": 5125,
      "count": 3348,
      "type": "SCALAR"
    },
    {
      "bufferView": 3,
      "componentType": 5126,
      "count": 93,
      "max": [
        4.166666507720947
      ],
      "min": [
        0.01666666753590107
      ],
      "type": "SCALAR"
    },
    {
      "bufferView": 5,
      "componentType": 5126,
      "count": 93,
      "max": [
        0.7064798474311829,
        0.7071062326431274,
        0.019802289083600044,
        0.4897036552429199
      ],
      "min": [
        -0.7071067690849304,
        -0.7070491909980774,
        -0.5100881457328796,
        0.0009475186816416681
      ],
      "type": "VEC4"
    },
    {
      "bufferView": 3,
      "byteOffset": 372,
      "componentType": 5126,
      "count": 73,
      "max": [
        4.166666507720947
      ],
      "min": [
        0.01666666753590107
      ],
      "type": "SCALAR"
    },
    {
      "bufferView": 4,
      "componentType": 5126,
      "count": 73,
      "max": [
        6.260116100311279,
        6.260000705718994,
        6.260116100311279
      ],
      "min": [
        6.260115146636963,
        6.260000705718994,
        6.260114669799805
      ],
      "type": "VEC3"
    },
    {
      "bufferView": 3,
      "byteOffset": 664,
      "componentType": 5126,
      "count": 17,
      "max": [
        4.166666507720947
      ],
      "min": [
        0.01666666753590107
      ],
      "type": "SCALAR"
    },
    {
      "bufferView": 4,
      "byteOffset": 876,
      "componentType": 5126,
      "count": 17,
      "max": [
        9.214803695678711,
        2.4025821685791016,
        0.29724642634391785
      ],
      "min": [
        4.198456764221191,
        2.4025821685791016,
        0.09259915351867676
      ],
      "type": "VEC3"
    },
    {
      "bufferView": 3,
      "byteOffset": 732,
      "componentType": 5126,
      "count": 1,
      "max": [
        0.01666666753590107
      ],
      "min": [
        0.01666666753590107
      ],
      "type": "SCALAR"
    },
    {
      "bufferView": 5,
      "byteOffset": 1488,
      "componentType": 5126,
      "count": 1,
      "max": [
        0.48970362544059753,
        0.5100889801979065,
        -0.5100881457328796,
        0.4897036552429199
      ],
      "min": [
        0.48970362544059753,
        0.5100889801979065,
        -0.5100881457328796,
        0.4897036552429199
      ],
      "type": "VEC4"
    }
  ],
  "animations": [
    {
      "channels": [
        {
          "sampler": 0,
          "target": {
            "node": 3,
            "path": "rotation"
          }
        },
        {
          "sampler": 1,
          "target": {
            "node": 3,
            "path": "scale"
          }
        },
        {
          "sampler": 2,
          "target": {
            "node": 5,
            "path": "translation"
          }
        },
        {
          "sampler": 3,
          "target": {
            "node": 5,
            "path": "rotation"
          }
        }
      ],
      "name": "Animation",
      "samplers": [
        {
          "input": 12,
          "interpolation": "LINEAR",
          "output": 13
        },
        {
          "input": 14,
          "interpolation": "LINEAR",
          "output": 15
        },
        {
          "input": 16,
          "interpolation": "LINEAR",
          "output": 17
        },
        {
          "input": 18,
          "interpolation": "LINEAR",
          "output": 19
        }
      ]
    }
  ],
  "asset": {
    "extras": {
      "author": "Gavin bou (https://sketchfab.com/GavinBou)",
      "license": "CC-BY-4.0 (http://creativecommons.org/licenses/by/4.0/)",
      "source": "https://sketchfab.com/3d-models/piano-a54f2ec945804f21a321dca4b462d85e",
      "title": "Piano"
    },
    "generator": "Sketchfab-15.27.0",
    "version": "2.0"
  },
  "bufferViews": [
    {
      "buffer": 0,
      "byteLength": 17568,
      "name": "floatBufferViews",
      "target": 34963
    },
    {
      "buffer": 0,
      "byteLength": 12008,
      "byteOffset": 17568,
      "byteStride": 8,
      "name": "floatBufferViews",
      "target": 34962
    },
    {
      "buffer": 0,
      "byteLength": 36024,
      "byteOffset": 29576,
      "byteStride": 12,
      "name": "floatBufferViews",
      "target": 34962
    },
    {
      "buffer": 0,
      "byteLength": 736,
      "byteOffset": 65600,
      "name": "floatBufferViews"
    },
    {
      "buffer": 0,
      "byteLength": 1080,
      "byteOffset": 66336,
      "byteStride": 12,
      "name": "floatBufferViews"
    },
    {
      "buffer": 0,
      "byteLength": 1504,
      "byteOffset": 67416,
      "byteStride": 16,
      "name": "floatBufferViews"
    }
  ],
  "buffers": [
    {
      "byteLength": 68920,
      "uri": "scene.bin"
    }
  ],
  "images": [
    {
      "uri": "textures/M_Toy_Piano_baseColor.png"
    }
  ],
  "materials": [
    {
      "doubleSided": true,
      "name": "M_Toy_Piano",
      "pbrMetallicRoughness": {
        "baseColorTexture": {
          "index": 0
        }
      }
    }
  ],
  "meshes": [
    {
      "name": "Object_0",
      "primitives": [
        {
          "attributes": {
            "NORMAL": 1,
            "POSITION": 0,
            "TEXCOORD_0": 2
          },
          "indices": 3,
          "material": 0,
          "mode": 4
        }
      ]
    },
    {
      "name": "Object_1",
      "primitives": [
        {
          "attributes": {
            "NORMAL": 5,
            "POSITION": 4,
            "TEXCOORD_0": 6
          },
          "indices": 7,
          "material": 0,
          "mode": 4
        }
      ]
    },
    {
      "name": "mesh_2",
      "primitives": [
        {
          "attributes": {
            "NORMAL": 9,
            "POSITION": 8,
            "TEXCOORD_0": 10
          },
          "indices": 11,
          "material": 0,
          "mode": 4
        }
      ]
    }
  ],
  "nodes": [
    {
      "children": [
        1
      ],
      "matrix": [
        0.17446060478687286,
        0.0,
        0.0,
        0.0,
        0.0,
        3.873803606488321e-17,
        -0.17446060478687286,
        0.0,
        0.0,
        0.17446060478687286,
        3.873803606488321e-17,
        0.0,
        0.0,
        0.0,
        0.0,
        1.0
      ],
      "name": "Sketchfab_model"
    },
    {
      "children": [
        2
      ],
      "name": "root"
    },
    {
      "children": [
        3,
        5,
        7
      ],
      "matrix": [
        1.0,
        0.0,
        0.0,
        0.0,
        0.0,
        2.220446049250313e-16,
        1.0,
        0.0,
        0.0,
        -1.0,
        2.220446049250313e-16,
        0.0,
        0.0,
        0.0,
        0.0,
        1.0
      ],
      "name": "GLTF_SceneRootNode"
    },
    {
      "children": [
        4
      ],
      "name": "S_Toy_Piano_Lid_0",
      "scale": [
        6.260115623474121,
        6.260000705718994,
        6.260115623474121
      ],
      "translation": [
        -5.279228687286377,
        8.406033515930176,
        7.093323707580566
      ]
    },
    {
      "mesh": 0,
      "name": "Object_4"
    },
    {
      "children": [
        6
      ],
      "name": "S_Toy_Piano_Drawer_3",
      "scale": [
        6.260115623474121,
        6.260000705718994,
        6.260115623474121
      ],
      "translation": [
        4.198456764221191,
        2.4025821685791016,
        0.29724642634391785
      ]
    },
    {
      "mesh": 1,
      "name": "Object_6"
    },
    {
      "children": [
        8
      ],
      "matrix": [
        6.260000228881836,
        0.0,
        0.0,
        0.0,
        0.0,
        5.276882757904019e-07,
        6.2601156234741,
        0.0,
        0.0,
        -6.2601156234741,
        5.276882757904019e-07,
        0.0,
        0.0,
        0.0,
        0.0,
        1.0
      ],
      "name": "Puzzles_23"
    },
    {
      "children": [
        9
      ],
      "name": "Piano Puzzle_22"
    },
    {
      "children": [
        10
      ],
      "matrix": [
        0.9991689053252538,
        -0.04076148465321204,
        0.0,
        0.0,
        0.04076148465321204,
        0.9991689053252538,
        0.0,
        0.0,
        0.0,
        0.0,
        1.0,
        0.0,
        -0.23856383562088013,
        0.08457548171281815,
        0.0642080307006836,
        1.0
      ],
      "name": "Piano_21"
    },
    {
      "children": [
        11
      ],
      "matrix": [
        8.429369480200677e-08,
        -0.9999999999999966,
        -0.0,
        0.0,
        0.9999999999999966,
        8.429369480200677e-08,
        0.0,
        0.0,
        0.0,
        -0.0,
        1.0,
        0.0,
        0.0,
        0.0,
        0.0,
        1.0
      ],
      "name": "S_Toy_Piano_19"
    },
    {
      "mesh": 2,
      "name": "mesh_2"
    }
  ],
  "samplers": [
    {
      "magFilter": 9729,
      "minFilter": 9987,
      "wrapS": 10497,
      "wrapT": 10497
    }
  ],
  "scene": 0,
  "scenes": [
    {
      "name": "Sketchfab_Scene",
      "nodes": [
        0
      ]
    }
  ],
  "textures": [
    {
      "sampler": 0,
      "source": 0
    }
  ]
}
